<svg xmlns="http://www.w3.org/2000/svg" width="129.653" height="75.174" viewBox="0 0 129.653 75.174">
  <path id="Icon_awesome-hands-helping" data-name="Icon awesome-hands-helping" d="M98.863,28.191H68.071v8.223c0,5.829-6.543,10.572-14.586,10.572S38.9,42.243,38.9,36.414V18.559L25.751,24.285c-3.91,1.689-6.3,4.758-6.3,8.047v6.945L3.244,46.061c-3.1,1.292-4.173,4.17-2.37,6.417L17.081,72.829c1.783,2.247,5.753,3.01,8.853,1.718l20.947-8.766H74.553c7.151,0,12.965-4.214,12.965-9.4H90.76c3.586,0,6.483-2.1,6.483-4.7v-9.4h1.621c2.694,0,4.862-1.571,4.862-3.524V31.715C103.725,29.762,101.558,28.191,98.863,28.191ZM128.785,22.7,112.578,2.348C110.8.1,106.825-.662,103.725.63L82.778,9.4h-20.7a16.913,16.913,0,0,0-6.868,1.424L48.42,13.889a4.574,4.574,0,0,0-3.039,3.979V36.414c0,3.245,3.626,5.873,8.1,5.873s8.1-2.628,8.1-5.873V23.492H98.863c6.26,0,11.345,3.686,11.345,8.223V35.9l16.207-6.784c3.1-1.307,4.153-4.17,2.37-6.417Z" transform="translate(0.002 -0.001)" fill="#fff"/>
</svg>
