<svg xmlns="http://www.w3.org/2000/svg" width="130" height="130" viewBox="0 0 130 130">
  <path id="Icon_map-health" data-name="Icon map-health" d="M130.72,44.053a2.716,2.716,0,0,0-2.708-2.708H92.8A2.716,2.716,0,0,1,90.1,38.637V3.428A2.716,2.716,0,0,0,87.387.72H44.053a2.716,2.716,0,0,0-2.708,2.708V38.637a2.716,2.716,0,0,1-2.708,2.708H3.428A2.716,2.716,0,0,0,.72,44.053V87.387A2.716,2.716,0,0,0,3.428,90.1H38.637A2.716,2.716,0,0,1,41.345,92.8v35.208a2.716,2.716,0,0,0,2.708,2.708H87.387a2.716,2.716,0,0,0,2.708-2.708V92.8A2.716,2.716,0,0,1,92.8,90.1h35.208a2.716,2.716,0,0,0,2.708-2.708Z" transform="translate(-0.72 -0.72)" fill="#fff"/>
</svg>
