<svg xmlns="http://www.w3.org/2000/svg" width="40" height="40" viewBox="0 0 40 40">
  <path id="Path_11" data-name="Path 11" d="M24,4c5.43,0,6.11.02,8.24.12a14.679,14.679,0,0,1,4.86.93,9.758,9.758,0,0,1,3.54,2.31,9.787,9.787,0,0,1,2.31,3.54,14.884,14.884,0,0,1,.93,4.86c.09,2.13.12,2.81.12,8.24s-.02,6.11-.12,8.24a14.94,14.94,0,0,1-.93,4.86,9.62,9.62,0,0,1-2.31,3.54,9.787,9.787,0,0,1-3.54,2.31,14.884,14.884,0,0,1-4.86.93c-2.13.09-2.81.12-8.24.12s-6.11-.02-8.24-.12a14.94,14.94,0,0,1-4.86-.93A10.272,10.272,0,0,1,5.05,37.1a14.625,14.625,0,0,1-.93-4.86C4.03,30.11,4,29.43,4,24s.02-6.11.12-8.24a14.625,14.625,0,0,1,.93-4.86A9.62,9.62,0,0,1,7.36,7.36,9.7,9.7,0,0,1,10.9,5.05a14.625,14.625,0,0,1,4.86-.93C17.89,4.03,18.57,4,24,4Zm0,10A10,10,0,1,0,34,24,10,10,0,0,0,24,14Zm13-.5A2.5,2.5,0,1,0,34.5,16,2.5,2.5,0,0,0,37,13.5ZM24,18a6,6,0,1,1-6,6A6,6,0,0,1,24,18Z" transform="translate(-4 -4)"/>
</svg>
