<svg xmlns="http://www.w3.org/2000/svg" width="39.92" height="38.15" viewBox="0 0 39.92 38.15">
  <path id="Path_13" data-name="Path 13" d="M39.92,23.44V38.2H31.36V24.43c0-3.46-1.24-5.82-4.33-5.82a4.675,4.675,0,0,0-4.39,3.13,5.718,5.718,0,0,0-.29,2.08V38.2H13.79s.12-23.32,0-25.74h8.56v3.65l-.05.08h.05v-.08a8.514,8.514,0,0,1,7.72-4.26C35.7,11.85,39.92,15.53,39.92,23.44ZM4.84.05C1.92.05,0,1.97,0,4.5A4.434,4.434,0,0,0,4.73,8.95h.06c2.98,0,4.84-1.98,4.84-4.45A4.452,4.452,0,0,0,4.84.05ZM.51,38.2H9.06V12.46H.51Z" transform="translate(0 -0.05)"/>
</svg>
