<svg xmlns="http://www.w3.org/2000/svg" width="93" height="93" viewBox="0 0 93 93">
  <g id="Group_626" data-name="Group 626" transform="translate(-139 -5854)">
    <g id="Icon_Container_-_Circle_-_Desktop" data-name="Icon Container - Circle - Desktop" transform="translate(139 5854)" opacity="0.93">
      <circle id="Ellipse_1" data-name="Ellipse 1" cx="46.5" cy="46.5" r="46.5" fill="none"/>
    </g>
    <path id="Icon_metro-mail-read" data-name="Icon metro-mail-read" d="M42.773,27.444H21.51V31.7H42.773ZM30.015,18.939H21.51v4.253h8.505Zm25.516-1.825v-6.68H46.175L34.268,1.928,22.361,10.434H13v6.68L4.5,23.192V65.719H64.037V23.192l-8.505-6.078ZM17.257,14.686H51.279V30.954L34.268,44.987,17.257,30.954V14.686ZM8.751,31.7,25.5,44.43,8.752,57.214V31.7ZM13,61.466,29.882,47.761,34.268,51.1l4.377-3.331,16.886,13.7H13Zm46.78-4.253L43.014,44.451,59.784,31.7V57.214Z" transform="translate(151.501 5867.072)" fill="#00664d"/>
  </g>
</svg>
