<svg xmlns="http://www.w3.org/2000/svg" width="129.653" height="103.717" viewBox="0 0 129.653 103.717">
  <path id="Icon_awesome-people-carry" data-name="Icon awesome-people-carry" d="M25.931,19.447a9.724,9.724,0,1,0-9.724-9.724A9.726,9.726,0,0,0,25.931,19.447Zm77.788,0A9.724,9.724,0,1,0,94,9.724,9.726,9.726,0,0,0,103.719,19.447Zm25.463,75.377L120.27,72.541l-8.326,9.4-.405,3.687,5.611,14.018a6.477,6.477,0,0,0,6.016,4.072,6.3,6.3,0,0,0,2.411-.466A6.479,6.479,0,0,0,129.183,94.825Zm-6.928-42.5-3.748-16.246a13.128,13.128,0,0,0-7.6-9.1,12.5,12.5,0,0,0-11.364.668A22.194,22.194,0,0,0,89.8,39.684l-2.289,6.867-3.241,2.066V29.171a3.251,3.251,0,0,0-3.241-3.241H48.62a3.251,3.251,0,0,0-3.241,3.241V48.618l-3.261-2.066-2.289-6.867a22.036,22.036,0,0,0-9.744-12.033,12.5,12.5,0,0,0-11.364-.668,13.128,13.128,0,0,0-7.6,9.1L7.4,52.325a12.978,12.978,0,0,0,2.917,11.486L23.926,79.186l2.046,18.758a6.487,6.487,0,0,0,6.442,5.773c.243,0,.466-.02.709-.041a6.472,6.472,0,0,0,5.733-7.151l-2.046-18.8a12.947,12.947,0,0,0-3.16-7.09l-8.771-9.926L28.443,46.47,29.821,50.6a13.1,13.1,0,0,0,4.963,6.6L45.135,63.79A8.624,8.624,0,0,0,48.62,64.8H81.031a8.624,8.624,0,0,0,3.484-1.013l10.352-6.584a13.019,13.019,0,0,0,4.963-6.6l1.378-4.132,3.565,14.241L96,70.637a12.947,12.947,0,0,0-3.16,7.09L90.8,96.526a6.486,6.486,0,0,0,5.733,7.151c.243.02.466.041.709.041a6.486,6.486,0,0,0,6.442-5.773l2.046-18.758,13.613-15.375A13.038,13.038,0,0,0,122.255,52.325ZM9.381,72.541.468,94.825A6.481,6.481,0,1,0,12.5,99.646l5.611-14.018-.405-3.687-8.326-9.4Z" transform="translate(0.001)" fill="#fff"/>
</svg>
