<svg xmlns="http://www.w3.org/2000/svg" width="48" height="48" viewBox="0 0 48 48">
  <g id="Group_694" data-name="Group 694" transform="translate(-1113 -25)">
    <g id="Icon_Container_-_Circle_-_Desktop" data-name="Icon Container - Circle - Desktop" transform="translate(1113 25)">
      <circle id="Ellipse_1" data-name="Ellipse 1" cx="24" cy="24" r="24" fill="none"/>
    </g>
    <g id="Iconly_Light-Outline_Search" data-name="Iconly/Light-Outline/Search" transform="translate(1123 35)">
      <g id="Search" transform="translate(2 2)">
        <path id="Combined-Shape" d="M11.274,0a11.268,11.268,0,0,1,8.305,18.888L23.2,22.5a.868.868,0,0,1-1.227,1.229l-3.668-3.658A11.272,11.272,0,1,1,11.274,0Zm0,1.736a9.537,9.537,0,1,0,9.536,9.536A9.547,9.547,0,0,0,11.274,1.736Z" transform="translate(0 0)" fill-rule="evenodd"/>
      </g>
    </g>
    <g id="Iconly_Light-Outline_Search-2" data-name="Iconly/Light-Outline/Search" transform="translate(1123 35)">
      <g id="Search-2" data-name="Search" transform="translate(2 2)">
        <path id="Combined-Shape-2" data-name="Combined-Shape" d="M11.274,0a11.268,11.268,0,0,1,8.305,18.888L23.2,22.5a.868.868,0,0,1-1.227,1.229l-3.668-3.658A11.272,11.272,0,1,1,11.274,0Zm0,1.736a9.537,9.537,0,1,0,9.536,9.536A9.547,9.547,0,0,0,11.274,1.736Z" transform="translate(0 0)" fill-rule="evenodd"/>
      </g>
    </g>
  </g>
</svg>
