<svg xmlns="http://www.w3.org/2000/svg" width="48" height="48" viewBox="0 0 48 48">
  <g id="Group_628" data-name="Group 628" transform="translate(-1234 -5593)">
    <g id="Icon_Container_-_Circle_-_Desktop" data-name="Icon Container - Circle - Desktop" transform="translate(1234 5593)">
      <circle id="Ellipse_1" data-name="Ellipse 1" cx="24" cy="24" r="24" fill="none"/>
    </g>
    <path id="Icon_zocial-call" data-name="Icon zocial-call" d="M3.33,8.8a2.194,2.194,0,0,1,.559-1.191L8.356,3.138q.522-.447.782.149l3.612,6.776a.975.975,0,0,1-.186,1.154l-1.638,1.638A1.853,1.853,0,0,0,10.4,14.01a5.684,5.684,0,0,0,1.154,2.867,24.483,24.483,0,0,0,2.271,2.98l1.154,1.19c.348.348.794.776,1.342,1.285a22.478,22.478,0,0,0,2.7,2.011,6.039,6.039,0,0,0,2.96,1.247,1.621,1.621,0,0,0,1.191-.484l1.937-1.936a.818.818,0,0,1,1.116-.149l6.517,3.835a.544.544,0,0,1,.3.391.475.475,0,0,1-.149.428l-4.468,4.468a2.188,2.188,0,0,1-1.19.557,9.008,9.008,0,0,1-4.115-.5,18.62,18.62,0,0,1-4.243-2.029Q16.922,28.9,15.247,27.6t-2.681-2.234l-.968-.932q-.372-.372-.987-1.024T8.468,20.843A37.394,37.394,0,0,1,5.824,17.1a21.829,21.829,0,0,1-1.936-4.152A8.832,8.832,0,0,1,3.33,8.8Z" transform="translate(1239.733 5599.053)" fill="#00664d"/>
  </g>
</svg>
